<?xml version="1.0" encoding="UTF-8" standalone="no"?>
<!-- Created with Inkscape (http://www.inkscape.org/) -->

<svg
   version="1.1"
   id="svg1"
   width="465.78668"
   height="154.10667"
   viewBox="0 0 465.78668 154.10667"
   xmlns="http://www.w3.org/2000/svg"
   xmlns:svg="http://www.w3.org/2000/svg">
  <defs
     id="defs1" />
  <g
     id="g1">
    <g
       id="group-R5">
      <path
         id="path2"
         d="m 559.035,160.879 c 22.012,0 24.649,-2.109 24.649,-19.367 0,-16.551 -2.637,-18.481 -24.649,-18.481 -22.187,0 -24.824,1.93 -24.824,18.481 0,17.258 2.637,19.367 24.824,19.367 z m 0,52.648 c 19.367,0 21.832,-1.937 21.832,-17.078 0,-15.672 -2.465,-17.609 -21.832,-17.609 -19.543,0 -22.012,1.937 -22.012,17.609 0,15.141 2.469,17.078 22.012,17.078 z m -48.773,-74.308 c 0,-30.809 5.109,-34.149 48.773,-34.149 43.488,0 48.598,3.34 48.598,34.149 0,22.019 -2.82,28.703 -20.25,30.82 14.789,2.109 17.254,8.981 17.254,27.293 0,29.402 -4.754,34.156 -45.602,34.156 -41.027,0 -45.957,-4.754 -45.957,-34.156 0,-18.312 2.469,-25.184 17.434,-27.293 -17.434,-2.117 -20.25,-8.98 -20.25,-30.82"
         style="fill:#231f20;fill-opacity:1;fill-rule:nonzero;stroke:none"
         transform="matrix(0.13333333,0,0,-0.13333333,0,154.10667)" />
      <path
         id="path3"
         d="m 352.809,160.879 c 22.007,0 24.648,-2.109 24.648,-19.367 0,-16.551 -2.641,-18.481 -24.648,-18.481 -22.188,0 -24.825,1.93 -24.825,18.481 0,17.258 2.637,19.367 24.825,19.367 z m 0,52.648 c 19.367,0 21.836,-1.937 21.836,-17.078 0,-15.672 -2.469,-17.609 -21.836,-17.609 -19.543,0 -22.012,1.937 -22.012,17.609 0,15.141 2.469,17.078 22.012,17.078 z m -48.774,-74.308 c 0,-30.809 5.11,-34.149 48.774,-34.149 43.488,0 48.597,3.34 48.597,34.149 0,22.019 -2.82,28.703 -20.25,30.82 14.789,2.109 17.254,8.981 17.254,27.293 0,29.402 -4.754,34.156 -45.601,34.156 -41.028,0 -45.954,-4.754 -45.954,-34.156 0,-18.312 2.465,-25.184 17.43,-27.293 -17.43,-2.117 -20.25,-8.98 -20.25,-30.82"
         style="fill:#231f20;fill-opacity:1;fill-rule:nonzero;stroke:none"
         transform="matrix(0.13333333,0,0,-0.13333333,0,154.10667)" />
      <path
         id="path4"
         d="m 764.027,123.031 c -21.304,0 -23.242,1.93 -23.242,18.309 l -23.769,-1.41 c 0,-30.641 4.406,-34.68 47.011,-34.86 41.731,-0.179 46.836,3.871 46.836,37.141 0,34.519 -5.461,38.742 -44.015,38.742 -11.27,0 -18.489,-0.699 -24.125,-2.113 l 0.527,32.922 h 43.488 l 1.41,-14.078 h 19.368 v 32.218 h -86.27 l -1.058,-68.843 c 13.203,1.234 24.121,2.117 41.023,2.117 23.949,0 25.883,-4.586 25.883,-21.485 0,-16.55 -2.817,-18.66 -23.067,-18.66"
         style="fill:#231f20;fill-opacity:1;fill-rule:nonzero;stroke:none"
         transform="matrix(0.13333333,0,0,-0.13333333,0,154.10667)" />
      <path
         id="path5"
         d="m 698.406,1013.73 c 1.641,2.9 4.137,6.79 6.535,10.41 -1.664,4.21 -4.507,10.82 -6.07,11.15 -1.738,0.37 -9.598,-10.59 -14.383,-20.95 6.559,0.4 11.438,-0.18 13.918,-0.61"
         style="fill:#231f20;fill-opacity:1;fill-rule:nonzero;stroke:none"
         transform="matrix(0.13333333,0,0,-0.13333333,0,154.10667)" />
      <path
         id="path6"
         d="m 152.93,209.301 v -84.692 l -27.821,-1.058 v -16.903 h 76.946 v 16.903 l -25.356,1.058 v 105.293 h -10.211 l -0.175,-0.179 -43.668,-6.692 2.64,-17.25 27.645,3.52"
         style="fill:#231f20;fill-opacity:1;fill-rule:nonzero;stroke:none"
         transform="matrix(0.13333333,0,0,-0.13333333,0,154.10667)" />
      <path
         id="path7"
         d="M 898.598,35.1992 H 34.9141 V 304.148 H 898.598 Z M 581.086,452.262 563.398,444.438 510.793,429.723 468.16,423.922 c 0,0 -30.762,-1.957 -39.539,3.73 -8.75,5.68 -36.949,2.977 -39.508,2.879 -2.57,-0.086 -22.925,-5.945 -38.175,-10.789 -4.622,-1.472 -9.766,-3.179 -14.727,-4.867 -7.617,5.262 -24.848,15.332 -47.106,16.945 0,0 -2.417,3.918 -3.234,10.731 -0.82,6.844 -4.437,60.39 -2.59,72.457 1.86,12.066 32.02,31.41 58.071,53.48 26.066,22.055 31.925,50.25 31.925,50.25 0,0 7.528,12.828 15.391,17.114 7.84,4.281 31.391,0.543 48.195,-6.274 16.805,-6.84 107.996,-1.305 107.996,-1.305 -0.07,-14.273 13.59,-77.195 18.184,-93.597 2.973,-10.653 8.316,-33.758 12.031,-49.106 3.551,-14.886 5.703,-30.953 6.012,-33.308 z M 34.9141,1117.79 H 898.598 V 403.805 l -11.325,16.187 -32.675,27.11 -48.981,28.246 -23.945,4.277 -22.613,4.344 c 0,0 -22.848,15.465 -30.536,15.191 -7.707,-0.269 -23.894,-10.922 -23.894,-10.922 l -18.539,-0.66 -6.223,-3.949 c -1.898,7.613 -3.726,16.09 -3.746,16.226 -1.832,9.79 -4.109,22.368 -4.18,24.43 -0.132,3.41 -2.371,18.18 -2.621,25.035 -0.23,6.832 -5.457,25.493 -5.457,25.493 l -1.062,77.652 c -7.653,-6.992 -16.653,-14.078 -24.473,-17.039 0,0 -16.957,-65.184 -12.211,-108.953 1.746,-4.864 3.34,-8.934 4.449,-11.094 2.661,-5.234 9.036,-21.57 13.485,-33.203 v -0.004 c 1.242,-3.238 3.324,-9.934 4.601,-14.109 l -2.277,-1.043 c -1.348,2.691 -2.91,5.765 -4.395,8.492 -3.675,6.738 -21.546,3.519 -25.066,5.961 -2.601,1.824 -3.351,8.16 -3.586,11.336 0,0.601 -0.043,1.218 -0.078,1.828 v 0.011 c -0.164,2.747 -0.422,5.247 -0.422,5.247 l 0.535,17.925 c 0.004,0.25 0.996,106.719 12.25,146.602 0.024,0.086 0.047,0.172 0.063,0.262 0.031,0.101 0.066,0.226 0.097,0.328 h 0.012 c 0.176,0.64 0.371,1.281 0.559,1.801 0,0 29.379,-0.938 62.062,38.347 9.836,13.531 21.91,35.606 25.157,45.637 0.871,2.664 1.687,5.473 2.429,8.324 -2.969,8.356 -7.176,16.828 -12.742,20.719 0,0 9.152,-0.199 15.641,-2.047 0.109,4.633 -0.301,9.086 -1.614,13.121 -3.847,11.863 8.125,28.848 14.243,33.066 6.136,4.211 5.753,15.051 5.636,18.481 -0.082,2.211 -1.906,6.754 -2.797,11.973 l -0.015,-0.012 c 0,0 -6.739,20.98 -3.535,34.238 0,0 -0.243,-18.355 16.589,-20.844 1.305,-0.062 2.637,-0.156 4,-0.296 h 0.059 c 6.887,-0.7 14.16,-2.153 18.441,-2.762 9.59,-1.363 13.961,13.051 13.961,13.051 0,0 5.555,4.777 12.188,11.289 6.609,6.523 9.379,8.902 7.957,16.863 -1.426,7.949 -43.082,39.016 -43.082,39.016 0,0 0.012,0.082 0.027,0.218 -8.574,6.453 -16.64,12.239 -20.082,13.965 0,0 6.059,4.863 10.914,2.016 4.203,-2.449 -0.687,-4.922 9.547,-12.914 0.375,3.808 0.61,10.152 -1.058,14.961 -1.977,5.687 -19.387,22.101 -27.133,29.215 l -6.332,-13.094 4.16,39.426 c 0.437,9.84 0.285,19.5 -1.516,23.9 -2.625,6.42 -8.918,-0.28 -14.465,-8.17 h 0.012 c -6.387,-10.2 -13.019,-26.92 -13.019,-26.92 0,0 -10.227,0.8 -19.868,0.87 -0.027,-0.04 -0.058,-0.11 -0.062,-0.17 -3.434,0.15 -8.633,0.13 -14.07,-0.7 -0.598,-0.13 -1.086,-0.2 -1.516,-0.23 -6.047,-1.07 -12.238,-3.21 -16.602,-7.31 -11.605,-10.888 -39.98,-47.884 -39.98,-47.884 0,0 -28.633,-30.152 -34.231,-33.758 -5.566,-3.644 -13.785,-13.644 -30.187,-18.226 0,0 -2.977,-6.164 -3.856,-11.277 -0.41,-6.137 0.27,-12.672 3.68,-17.434 0,0 -4.984,3.254 -11.234,6.996 -19.332,-13.59 -70.36,-41.937 -75.305,-45.344 -6.133,-4.218 -30.098,-21.058 -48.863,-23.437 0,0 -125.32,-26.613 -131.762,-37.746 -28.453,-12.407 -36.832,-29.817 -41.926,-40.969 -5.824,-12.781 -20.886,-55.02 -36.98,-84.148 -16.11,-29.125 -70.426,-59.625 -78.188,-66.18 -7.765,-6.555 -18.679,-4.653 -4.472,-18.996 14.23,-14.352 50.031,-9.082 76.011,-0.735 1.106,0.371 2.235,0.797 3.383,1.274 1.231,0.832 2.824,1.633 4.934,2.359 3.449,1.856 6.945,4.098 10.41,6.633 14.594,13.434 24.199,39.781 24.207,39.785 -0.902,1.617 -1.793,3.434 -2.672,5.442 -3.234,8.082 -6.816,24.05 5.324,40.308 -1.254,-17.863 2.328,-35.523 17.317,-47.117 6.734,-3.609 8.277,-10.953 8.277,-10.953 5.305,-20.598 -9.848,-44.121 -24.254,-56.625 -10.351,-8.981 -10.929,-10.594 -9.879,-20.684 0.117,-0.34 29.094,-87.469 20.567,-119.086 l -17.133,-5.136 c 0,0 7.844,54.945 -1.871,98.097 -0.289,-9.222 -1.453,-19.953 -2.692,-30.457 0,0 -5.707,-45.66 -11.425,-54.804 -2.11,-3.368 -1.86,-9.731 -0.735,-16.383 l -21.855,-6.785 c 0,0 -30.481,-10.512 -34.703,-11.754 -4.246,-1.246 -22.246,-0.981 -22.246,-0.981 0,0 -28.25,-0.582 -33.372,-1.199 -5.1246,-0.606 -26.9996,-11.66 -26.9996,-11.66 l -18.8203,-0.672 -23.414,-7.945 z M 0,1155.83 V 0 H 933.508 V 1155.83 H 0"
         style="fill:#231f20;fill-opacity:1;fill-rule:nonzero;stroke:none"
         transform="matrix(0.13333333,0,0,-0.13333333,0,154.10667)" />
      <path
         id="path8"
         d="m 1445.84,769.34 h -99.94 v 33.312 l 25.68,1.739 V 970.262 L 1308.42,769.34 h -46.85 l -64.2,198.844 V 804.391 l 26.38,-1.739 V 769.34 h -99.59 v 33.312 l 28.45,1.739 v 172.812 l -27.41,1.735 v 33.312 h 106.18 l 48.58,-158.582 c 2.78,-9.023 4.86,-18.395 6.95,-27.414 2.43,9.019 4.51,18.391 7.28,27.414 l 47.89,158.582 h 103.41 v -33.312 l -28.11,-1.735 V 804.391 l 28.46,-1.739 V 769.34"
         style="fill:#231f20;fill-opacity:1;fill-rule:nonzero;stroke:none"
         transform="matrix(0.13333333,0,0,-0.13333333,0,154.10667)" />
      <path
         id="path9"
         d="m 1485.22,1005.31 c 0,20.13 3.47,23.6 27.41,23.6 22.91,0 26.38,-3.47 26.38,-23.6 0,-20.474 -3.47,-23.595 -26.38,-23.595 -23.94,0 -27.41,3.121 -27.41,23.595 z m 76.69,-235.97 h -97.16 v 31.234 l 26.72,1.731 v 119.722 l -26.72,1.387 v 31.582 h 71.14 V 802.305 l 26.02,-1.731 V 769.34"
         style="fill:#231f20;fill-opacity:1;fill-rule:nonzero;stroke:none"
         transform="matrix(0.13333333,0,0,-0.13333333,0,154.10667)" />
      <path
         id="path10"
         d="m 1740.62,894.961 -41.3,-2.082 c 0,23.941 -5.9,31.23 -37.48,31.23 -34.35,0 -39.21,-7.632 -39.21,-61.765 0,-54.485 4.86,-61.77 39.21,-61.77 31.93,0 37.48,5.899 37.48,29.84 l 41.3,1.734 c 0,-53.089 -10.76,-65.929 -78.78,-65.929 -69.05,0 -82.24,15.613 -82.24,96.125 0,80.16 13.19,95.773 82.24,95.773 66.98,0 78.78,-12.84 78.78,-63.156"
         style="fill:#231f20;fill-opacity:1;fill-rule:nonzero;stroke:none"
         transform="matrix(0.13333333,0,0,-0.13333333,0,154.10667)" />
      <path
         id="path11"
         d="m 1971.38,769.34 h -97.17 v 31.234 l 26.37,1.731 v 87.797 c 0,23.597 -6.94,30.539 -30.53,30.539 -14.92,0 -25.68,-3.473 -46.16,-13.536 v -104.8 l 26.38,-1.731 V 769.34 h -97.51 v 31.234 l 26.37,1.731 v 194.332 l -26.37,1.39 v 31.573 h 71.13 v -98.549 c 17.35,15.613 38.87,27.066 68.71,27.066 38.87,0 52.75,-12.492 52.75,-56.562 v -99.25 l 26.03,-1.731 V 769.34"
         style="fill:#231f20;fill-opacity:1;fill-rule:nonzero;stroke:none"
         transform="matrix(0.13333333,0,0,-0.13333333,0,154.10667)" />
      <path
         id="path12"
         d="m 2010.78,1005.31 c 0,20.13 3.47,23.6 27.41,23.6 22.91,0 26.38,-3.47 26.38,-23.6 0,-20.474 -3.47,-23.595 -26.38,-23.595 -23.94,0 -27.41,3.121 -27.41,23.595 z m 76.69,-235.97 h -97.16 v 31.234 l 26.72,1.731 v 119.722 l -26.72,1.387 v 31.582 h 71.14 V 802.305 l 26.02,-1.731 V 769.34"
         style="fill:#231f20;fill-opacity:1;fill-rule:nonzero;stroke:none"
         transform="matrix(0.13333333,0,0,-0.13333333,0,154.10667)" />
      <path
         id="path13"
         d="m 2230.78,822.434 v 89.183 c -13.19,7.633 -22.55,9.719 -44.42,9.719 -31.58,0 -38.86,-7.289 -38.86,-54.832 0,-48.234 7.28,-54.828 39.21,-54.828 20.82,0 30.88,2.429 44.07,10.758 z m 44.77,99.593 v -147.48 c 0,-61.77 -14.58,-75.652 -85.72,-75.652 -65.58,0 -77.73,12.843 -77.73,57.953 l 40.26,1.734 c 0,-21.168 5.89,-27.762 36.78,-27.762 36.09,0 41.64,10.758 41.64,43.727 v 27.414 c -19.08,-22.207 -32.62,-27.066 -60.03,-27.066 -48.24,0 -65.59,15.265 -65.59,91.609 0,76 17.35,91.613 65.93,91.613 28.11,0 42.69,-4.855 59.69,-23.945 v 21.168 h 44.77 v -0.344 h 26.37 v -31.23 l -26.37,-1.739"
         style="fill:#231f20;fill-opacity:1;fill-rule:nonzero;stroke:none"
         transform="matrix(0.13333333,0,0,-0.13333333,0,154.10667)" />
      <path
         id="path14"
         d="m 2383.46,799.531 c 20.47,0 34.01,6.594 51.7,23.946 v 28.105 h -23.25 c -49.62,0 -56.91,-12.144 -56.91,-28.801 0,-12.492 7.64,-23.25 28.46,-23.25 z M 2506.3,769.34 h -68.01 l -2.08,27.066 c -21.17,-21.511 -39.91,-30.187 -66.29,-30.187 -40.6,0 -57.6,22.902 -57.6,53.785 0,32.617 13.19,56.91 94.04,56.91 h 28.8 v 10.758 c 0,28.805 -5.55,38.172 -37.82,38.172 -29.84,0 -35.4,-6.938 -35.4,-26.028 l -41.29,-2.078 c 0,45.457 13.53,60.379 78.43,60.379 65.93,0 80.85,-14.574 80.85,-69.75 v -86.062 l 26.37,-1.387 V 769.34"
         style="fill:#231f20;fill-opacity:1;fill-rule:nonzero;stroke:none"
         transform="matrix(0.13333333,0,0,-0.13333333,0,154.10667)" />
      <path
         id="path15"
         d="m 2743.51,769.34 h -97.16 v 31.234 l 26.37,1.731 v 87.797 c 0,23.597 -6.94,30.539 -30.54,30.539 -14.92,0 -25.68,-3.473 -46.15,-13.536 v -104.8 l 26.37,-1.731 V 769.34 h -97.51 v 31.234 l 26.37,1.731 v 119.722 l -26.37,1.739 v 31.23 h 71.14 v -23.945 c 17.35,15.613 38.87,27.066 68.71,27.066 38.86,0 52.75,-12.492 52.75,-56.562 v -99.25 l 26.02,-1.731 V 769.34"
         style="fill:#231f20;fill-opacity:1;fill-rule:nonzero;stroke:none"
         transform="matrix(0.13333333,0,0,-0.13333333,0,154.10667)" />
      <path
         id="path16"
         d="m 1344.51,610.566 h -36.09 l -3.12,44.071 h -37.13 l -11.46,-0.696 V 481.129 l 28.81,-1.738 v -33.313 h -104.11 v 33.313 l 28.46,1.738 v 172.812 l -11.11,0.696 h -36.43 l -3.13,-44.071 h -36.09 v 78.422 h 221.4 v -78.422"
         style="fill:#231f20;fill-opacity:1;fill-rule:nonzero;stroke:none"
         transform="matrix(0.13333333,0,0,-0.13333333,0,154.10667)" />
      <path
         id="path17"
         d="m 1389.62,553.305 h 76.69 c -1.04,43.726 -8.33,49.625 -38.18,49.625 -30.88,0 -37.47,-5.899 -38.51,-49.625 z m 77.03,-51.356 40.6,1.735 c 0,-47.543 -11.1,-60.727 -78.42,-60.727 -69.06,0 -82.24,15.613 -82.24,96.121 0,80.164 13.18,95.777 81.54,95.777 69.41,0 79.47,-14.226 79.47,-98.55 0,-8.328 -2.08,-10.414 -10.06,-10.414 h -107.92 c 1.04,-44.762 7.29,-50.664 39.21,-50.664 32.62,0 37.82,5.554 37.82,26.722"
         style="fill:#231f20;fill-opacity:1;fill-rule:nonzero;stroke:none"
         transform="matrix(0.13333333,0,0,-0.13333333,0,154.10667)" />
      <path
         id="path18"
         d="m 1697.41,571.699 -41.29,-2.082 c 0,23.942 -5.9,31.231 -37.48,31.231 -34.35,0 -39.22,-7.633 -39.22,-61.77 0,-54.48 4.87,-61.769 39.22,-61.769 31.92,0 37.48,5.902 37.48,29.843 l 41.29,1.735 c 0,-53.094 -10.75,-65.93 -78.77,-65.93 -69.06,0 -82.25,15.613 -82.25,96.121 0,80.164 13.19,95.777 82.25,95.777 66.97,0 78.77,-12.839 78.77,-63.156"
         style="fill:#231f20;fill-opacity:1;fill-rule:nonzero;stroke:none"
         transform="matrix(0.13333333,0,0,-0.13333333,0,154.10667)" />
      <path
         id="path19"
         d="m 1928.17,446.078 h -97.16 v 31.231 l 26.37,1.734 v 87.797 c 0,23.598 -6.94,30.535 -30.54,30.535 -14.92,0 -25.68,-3.469 -46.15,-13.531 V 479.043 l 26.37,-1.734 v -31.231 h -97.51 v 31.231 l 26.37,1.734 v 194.332 l -26.37,1.387 v 31.578 h 71.14 v -98.551 c 17.35,15.613 38.87,27.066 68.71,27.066 38.86,0 52.75,-12.492 52.75,-56.562 v -99.25 l 26.02,-1.734 v -31.231"
         style="fill:#231f20;fill-opacity:1;fill-rule:nonzero;stroke:none"
         transform="matrix(0.13333333,0,0,-0.13333333,0,154.10667)" />
      <path
         id="path20"
         d="m 2154.76,446.078 h -97.17 v 31.231 l 26.38,1.734 v 87.797 c 0,23.598 -6.94,30.535 -30.54,30.535 -14.92,0 -25.68,-3.469 -46.15,-13.531 V 479.043 l 26.37,-1.734 v -31.231 h -97.51 v 31.231 l 26.37,1.734 v 119.723 l -26.37,1.734 v 31.234 h 71.14 v -23.945 c 17.35,15.613 38.86,27.066 68.71,27.066 38.86,0 52.74,-12.492 52.74,-56.562 v -99.25 l 26.03,-1.734 v -31.231"
         style="fill:#231f20;fill-opacity:1;fill-rule:nonzero;stroke:none"
         transform="matrix(0.13333333,0,0,-0.13333333,0,154.10667)" />
      <path
         id="path21"
         d="m 2213.39,539.078 c 0,-53.789 5.21,-61.074 42.34,-61.074 37.13,0 42.68,7.285 42.68,61.074 0,53.789 -5.55,60.727 -42.68,60.727 -37.13,0 -42.34,-6.938 -42.34,-60.727 z m 128.4,0 c 0,-80.16 -14.23,-96.121 -86.06,-96.121 -71.83,0 -85.71,15.961 -85.71,96.121 0,80.164 13.88,95.777 85.71,95.777 71.83,0 86.06,-15.613 86.06,-95.777"
         style="fill:#231f20;fill-opacity:1;fill-rule:nonzero;stroke:none"
         transform="matrix(0.13333333,0,0,-0.13333333,0,154.10667)" />
      <path
         id="path22"
         d="m 2452.48,446.078 h -97.51 v 31.231 l 26.37,1.734 v 194.332 l -26.37,1.387 v 31.578 h 71.14 V 479.043 l 26.37,-1.734 v -31.231"
         style="fill:#231f20;fill-opacity:1;fill-rule:nonzero;stroke:none"
         transform="matrix(0.13333333,0,0,-0.13333333,0,154.10667)" />
      <path
         id="path23"
         d="m 2509.39,539.078 c 0,-53.789 5.2,-61.074 42.34,-61.074 37.13,0 42.68,7.285 42.68,61.074 0,53.789 -5.55,60.727 -42.68,60.727 -37.14,0 -42.34,-6.938 -42.34,-60.727 z m 128.39,0 c 0,-80.16 -14.22,-96.121 -86.05,-96.121 -71.84,0 -85.72,15.961 -85.72,96.121 0,80.164 13.88,95.777 85.72,95.777 71.83,0 86.05,-15.613 86.05,-95.777"
         style="fill:#231f20;fill-opacity:1;fill-rule:nonzero;stroke:none"
         transform="matrix(0.13333333,0,0,-0.13333333,0,154.10667)" />
      <path
         id="path24"
         d="m 2790.46,499.172 v 89.183 c -13.19,7.633 -22.55,9.715 -44.42,9.715 -31.58,0 -38.86,-7.285 -38.86,-54.828 0,-48.234 7.28,-54.828 39.21,-54.828 20.82,0 30.88,2.43 44.07,10.758 z m 44.77,99.594 V 451.285 c 0,-61.769 -14.58,-75.652 -85.72,-75.652 -65.58,0 -77.73,12.84 -77.73,57.953 l 40.26,1.734 c 0,-21.168 5.89,-27.761 36.78,-27.761 36.09,0 41.64,10.757 41.64,43.726 v 27.414 c -19.08,-22.211 -32.62,-27.066 -60.03,-27.066 -48.24,0 -65.59,15.265 -65.59,91.609 0,76 17.35,91.613 65.93,91.613 28.11,0 42.69,-4.859 59.69,-23.945 v 21.168 h 44.77 v -0.344 h 26.37 V 600.5 l -26.37,-1.734"
         style="fill:#231f20;fill-opacity:1;fill-rule:nonzero;stroke:none"
         transform="matrix(0.13333333,0,0,-0.13333333,0,154.10667)" />
      <path
         id="path25"
         d="m 2902.56,682.051 c 0,20.125 3.47,23.597 27.41,23.597 22.9,0 26.37,-3.472 26.37,-23.597 0,-20.477 -3.47,-23.598 -26.37,-23.598 -23.94,0 -27.41,3.121 -27.41,23.598 z m 76.69,-235.973 h -97.17 v 31.231 l 26.72,1.734 v 119.723 l -26.72,1.386 v 31.582 h 71.14 V 479.043 l 26.03,-1.734 v -31.231"
         style="fill:#231f20;fill-opacity:1;fill-rule:nonzero;stroke:none"
         transform="matrix(0.13333333,0,0,-0.13333333,0,154.10667)" />
      <path
         id="path26"
         d="m 3157.95,571.699 -41.29,-2.082 c 0,23.942 -5.9,31.231 -37.48,31.231 -34.35,0 -39.21,-7.633 -39.21,-61.77 0,-54.48 4.86,-61.769 39.21,-61.769 31.93,0 37.48,5.902 37.48,29.843 l 41.29,1.735 c 0,-53.094 -10.75,-65.93 -78.77,-65.93 -69.06,0 -82.24,15.613 -82.24,96.121 0,80.164 13.18,95.777 82.24,95.777 66.97,0 78.77,-12.839 78.77,-63.156"
         style="fill:#231f20;fill-opacity:1;fill-rule:nonzero;stroke:none"
         transform="matrix(0.13333333,0,0,-0.13333333,0,154.10667)" />
      <path
         id="path27"
         d="m 3251.29,476.27 c 20.48,0 34.01,6.589 51.71,23.941 v 28.109 h -23.25 c -49.63,0 -56.91,-12.144 -56.91,-28.8 0,-12.493 7.63,-23.25 28.45,-23.25 z m 122.85,-30.192 h -68.02 l -2.08,27.067 c -21.17,-21.512 -39.91,-30.188 -66.28,-30.188 -40.6,0 -57.61,22.902 -57.61,53.785 0,32.617 13.19,56.91 94.05,56.91 h 28.8 v 10.758 c 0,28.805 -5.55,38.172 -37.83,38.172 -29.84,0 -35.39,-6.937 -35.39,-26.027 l -41.3,-2.082 c 0,45.461 13.53,60.382 78.43,60.382 65.93,0 80.85,-14.574 80.85,-69.75 v -86.062 l 26.38,-1.387 v -31.578"
         style="fill:#231f20;fill-opacity:1;fill-rule:nonzero;stroke:none"
         transform="matrix(0.13333333,0,0,-0.13333333,0,154.10667)" />
      <path
         id="path28"
         d="m 3493.38,446.078 h -97.51 v 31.231 l 26.37,1.734 v 194.332 l -26.37,1.387 v 31.578 h 71.14 V 479.043 l 26.37,-1.734 v -31.231"
         style="fill:#231f20;fill-opacity:1;fill-rule:nonzero;stroke:none"
         transform="matrix(0.13333333,0,0,-0.13333333,0,154.10667)" />
      <path
         id="path29"
         d="M 1334.1,349.418 V 201.59 c -0.69,-66.281 -13.88,-80.86 -87.45,-80.86 -73.57,0 -86.75,14.579 -87.45,80.86 v 147.828 l -38.51,1.387 v 14.922 h 97.51 v -14.922 l -38.52,-1.387 v -147.48 c 0,-55.868 9.02,-64.547 66.97,-64.547 57.95,0 66.98,8.679 66.98,64.547 v 147.48 l -38.18,1.387 v 14.922 h 97.52 v -14.922 l -38.87,-1.387"
         style="fill:#231f20;fill-opacity:1;fill-rule:nonzero;stroke:none"
         transform="matrix(0.13333333,0,0,-0.13333333,0,154.10667)" />
      <path
         id="path30"
         d="m 1595.74,122.82 h -90.23 v 14.219 l 35.4,1.391 v 113.824 c 0,26.375 -11.1,37.129 -38.87,37.129 -22.21,0 -40.6,-6.246 -70.09,-24.985 V 138.43 l 35.39,-1.391 V 122.82 h -90.22 v 14.219 l 35.39,1.391 v 150.605 l -35.39,1.391 v 14.57 h 54.83 v -28.453 c 25.67,20.477 48.23,30.539 77.73,30.539 35.74,0 51.01,-14.23 51.01,-51.012 V 138.43 l 35.05,-1.391 V 122.82"
         style="fill:#231f20;fill-opacity:1;fill-rule:nonzero;stroke:none"
         transform="matrix(0.13333333,0,0,-0.13333333,0,154.10667)" />
      <path
         id="path31"
         d="m 1640.86,363.992 c 0,13.188 2.43,15.965 17.01,15.965 13.88,0 16.31,-2.777 16.31,-15.965 0,-13.187 -2.43,-15.617 -16.31,-15.617 -14.58,0 -17.01,2.43 -17.01,15.617 z m 62.12,-241.172 h -90.23 v 14.219 l 35.4,1.391 v 150.261 l -35.4,1.735 v 14.57 h 55.18 V 138.43 l 35.05,-1.391 V 122.82"
         style="fill:#231f20;fill-opacity:1;fill-rule:nonzero;stroke:none"
         transform="matrix(0.13333333,0,0,-0.13333333,0,154.10667)" />
      <path
         id="path32"
         d="m 1894.87,289.73 -68.01,-166.91 h -20.48 l -67.66,166.91 -29.85,1.735 v 13.531 h 83.29 v -13.531 l -32.97,-1.387 45.46,-112.781 c 4.86,-12.84 8.67,-23.945 11.8,-35.047 h 2.08 c 2.78,10.762 6.59,21.863 12.14,35.047 l 45.81,112.781 -33.31,1.387 v 13.531 h 81.55 v -13.531 l -29.85,-1.735"
         style="fill:#231f20;fill-opacity:1;fill-rule:nonzero;stroke:none"
         transform="matrix(0.13333333,0,0,-0.13333333,0,154.10667)" />
      <path
         id="path33"
         d="m 1956.29,221.715 h 110.7 c -0.7,59.687 -10.06,69.406 -55.52,69.406 -45.81,0 -54.49,-9.719 -55.18,-69.406 z m 110,-48.582 18.74,1.039 c 0,-40.602 -11.79,-53.442 -72.18,-53.442 -63.5,0 -75.99,14.93 -75.99,93.352 0,77.731 12.49,93 74.61,93 63.15,0 74.6,-14.578 74.6,-93 0,-5.551 -1.39,-6.941 -6.59,-6.941 h -123.19 c 0.69,-60.731 9.37,-70.102 56.56,-70.102 46.16,0 53.44,7.981 53.44,36.094"
         style="fill:#231f20;fill-opacity:1;fill-rule:nonzero;stroke:none"
         transform="matrix(0.13333333,0,0,-0.13333333,0,154.10667)" />
      <path
         id="path34"
         d="m 2244.99,305.348 v -17.352 h -14.22 c -20.48,0 -35.05,-6.941 -62.47,-31.926 V 138.43 l 35.4,-1.391 V 122.82 h -90.23 v 14.219 l 35.4,1.391 v 150.605 l -35.4,1.391 v 14.57 h 54.83 v -34.699 c 25.33,28.457 40.26,36.785 62.12,36.785 6.25,0 11.11,-0.695 14.57,-1.734"
         style="fill:#231f20;fill-opacity:1;fill-rule:nonzero;stroke:none"
         transform="matrix(0.13333333,0,0,-0.13333333,0,154.10667)" />
      <path
         id="path35"
         d="m 2417.8,256.07 -19.78,-1.386 c 0,30.882 -6.94,36.437 -51.7,36.437 -46.85,0 -53.1,-6.594 -53.1,-30.191 0,-23.598 6.6,-30.887 62.12,-38.867 58.3,-7.981 65.93,-16.309 65.93,-52.747 0,-40.257 -10.76,-48.586 -75.65,-48.586 -64.2,0 -74.26,9.372 -74.26,54.833 l 19.78,1.386 c 0,-33.308 6.59,-40.25 54.48,-40.25 48.24,0 55.87,6.242 55.87,31.574 0,24.293 -4.86,31.582 -54.13,38.868 -65.24,9.718 -73.57,18.39 -73.57,53.437 0,35.746 8.33,46.504 72.53,46.504 61.42,0 71.48,-8.676 71.48,-51.012"
         style="fill:#231f20;fill-opacity:1;fill-rule:nonzero;stroke:none"
         transform="matrix(0.13333333,0,0,-0.13333333,0,154.10667)" />
      <path
         id="path36"
         d="m 2473.66,363.992 c 0,13.188 2.43,15.965 17,15.965 13.88,0 16.31,-2.777 16.31,-15.965 0,-13.187 -2.43,-15.617 -16.31,-15.617 -14.57,0 -17,2.43 -17,15.617 z m 62.11,-241.172 h -90.22 v 14.219 l 35.4,1.391 v 150.261 l -35.4,1.735 v 14.57 h 55.18 V 138.43 l 35.04,-1.391 V 122.82"
         style="fill:#231f20;fill-opacity:1;fill-rule:nonzero;stroke:none"
         transform="matrix(0.13333333,0,0,-0.13333333,0,154.10667)" />
      <path
         id="path37"
         d="m 2601.01,164.457 c 0,-19.437 7.98,-27.066 30.53,-27.066 h 27.42 v -12.84 c -7.98,-2.082 -17,-3.473 -31.58,-3.473 -34.36,0 -45.81,12.152 -45.81,38.867 v 129.09 l -36.43,1.391 v 14.57 h 36.43 v 37.481 h 19.44 v -37.481 h 57.95 v -14.57 l -57.95,-1.735 V 164.457"
         style="fill:#231f20;fill-opacity:1;fill-rule:nonzero;stroke:none"
         transform="matrix(0.13333333,0,0,-0.13333333,0,154.10667)" />
      <path
         id="path38"
         d="m 2866.84,289.73 -70.1,-169.339 c -23.25,-55.8715 -43.03,-68.0199 -76.69,-68.0199 -7.98,0 -14.58,1.0391 -22.56,3.1289 v 14.5703 h 20.82 c 26.72,0 41.3,8.6797 60.73,55.1677 l -68.71,164.492 -30.19,1.735 v 13.531 h 85.71 v -13.531 l -35.04,-1.387 46.84,-111.738 c 5.21,-12.844 9.03,-23.602 11.46,-35.051 h 1.38 c 2.78,11.102 6.25,21.863 11.8,35.051 l 45.46,111.738 -30.54,1.387 v 13.531 h 79.82 v -13.531 l -30.19,-1.735"
         style="fill:#231f20;fill-opacity:1;fill-rule:nonzero;stroke:none"
         transform="matrix(0.13333333,0,0,-0.13333333,0,154.10667)" />
    </g>
  </g>
</svg>
